<svg width="202" height="274" viewBox="0 0 202 274" fill="none" xmlns="http://www.w3.org/2000/svg">
<path d="M109.151 133.38C109.151 132.493 109.277 131.67 109.531 130.91C109.911 130.15 110.417 129.453 111.051 128.82L157.411 87.2101C158.297 86.4501 158.931 85.9434 159.311 85.6901C159.817 85.4368 160.324 85.3101 160.831 85.3101C161.337 85.3101 161.717 85.5001 161.971 85.8801C162.224 86.1334 162.351 86.7034 162.351 87.5901V260.3C162.351 262.327 162.857 263.847 163.871 264.86C165.011 265.747 166.594 266.38 168.621 266.76L190.661 270.56C191.167 270.56 191.547 270.687 191.801 270.94C192.181 271.193 192.371 271.51 192.371 271.89C192.371 272.27 192.244 272.65 191.991 273.03C191.737 273.283 191.294 273.41 190.661 273.41H79.8907C78.624 273.41 77.9907 272.967 77.9907 272.08C77.9907 271.32 78.5607 270.813 79.7007 270.56L103.451 266.95C105.477 266.443 106.934 265.747 107.821 264.86C108.707 263.847 109.151 262.517 109.151 260.87V133.38ZM87.4907 109.44C90.9107 106.02 93.5074 102.537 95.2807 98.9901C97.054 95.4434 97.9407 91.2635 97.9407 86.4501C97.9407 82.3968 96.8007 78.4068 94.5207 74.4801C92.2407 70.4268 89.5807 66.3735 86.5407 62.3201C83.5007 58.1401 80.8407 53.7701 78.5607 49.2101C76.2807 44.5235 75.1407 39.5201 75.1407 34.2001C75.1407 27.9934 76.5974 22.2934 79.5107 17.1001C82.424 11.9068 86.5407 7.79011 91.8607 4.75012C97.3074 1.58345 103.767 0.00012207 111.241 0.00012207C121.881 0.00012207 130.304 3.29345 136.511 9.88011C142.717 16.4668 145.821 24.4468 145.821 33.8201C145.821 40.0268 144.744 45.9168 142.591 51.4901C140.564 56.9368 137.017 62.9535 131.951 69.5401C126.884 76.0001 119.791 83.6634 110.671 92.5301L3.8907 209.76L3.7007 207.48H199.781C200.414 207.48 200.921 207.607 201.301 207.86C201.681 207.987 201.871 208.303 201.871 208.81C201.871 210.203 200.921 210.9 199.021 210.9H2.3707C1.86404 210.9 1.4207 210.773 1.0407 210.52C0.660703 210.14 0.470703 209.697 0.470703 209.19C0.470703 208.683 0.59737 208.24 0.850703 207.86C1.10404 207.48 1.4207 207.1 1.8007 206.72L87.4907 109.44Z" fill="#242F65"/>
</svg>
