<svg width="203" height="203" viewBox="0 0 203 203" fill="none" xmlns="http://www.w3.org/2000/svg">
<path d="M125.982 7.78294L125.559 9.88222L121.911 9.13976L119.645 20.2241L116.992 19.6777L119.258 8.59331L115.634 7.85212L116.057 5.75285L125.982 7.78294Z" fill="white"/>
<path d="M144.231 14.4999L138.997 26.9045L136.49 25.8651L138.765 20.479L133.448 18.2412L131.151 23.6023L128.668 22.5642L133.902 10.1597L136.385 11.1977L134.274 16.2111L139.591 18.4489L141.702 13.4356L144.231 14.4999Z" fill="white"/>
<path d="M153.063 32.5877L148.63 29.491L146.29 31.1545L143.958 29.5285L155.712 21.4999L158.229 23.255L154.602 36.9609L152.27 35.3349L153.063 32.5877ZM153.653 30.4974L155.301 24.7204L150.397 28.2262L153.653 30.4974Z" fill="white"/>
<path d="M166.506 49.0613L164.672 47.0803L167.32 36.4693L160.573 42.6663L158.738 40.6853L168.658 31.5817L170.492 33.5627L167.793 44.2425L174.59 38.0005L176.425 39.9815L166.506 49.0613Z" fill="white"/>
<path d="M178.983 55.3517L176.021 63.7528L174.351 60.9461L177.092 53.5346L171.776 56.6847L170.39 54.37L181.987 47.5012L183.372 49.8159L178.155 52.8998L185.922 54.0998L187.594 56.8827L178.983 55.3517Z" fill="white"/>
<path d="M182.933 76.5172C182.27 76.3865 181.664 76.0682 181.093 75.5609C180.521 75.0537 180.08 74.3389 179.77 73.4165C179.435 72.5165 179.312 71.6756 179.356 70.8435C179.4 70.0115 179.653 69.3097 180.069 68.6882C180.486 68.0666 181.086 67.5741 181.823 67.2319L182.805 69.9304C182.313 70.1665 181.959 70.5291 181.741 71.0181C181.524 71.5072 181.52 72.0315 181.728 72.6147C181.915 73.1492 182.208 73.4985 182.581 73.6853C182.954 73.872 183.386 73.8711 183.824 73.7276C184.215 73.5815 184.514 73.359 184.675 73.0338C184.86 72.7099 184.951 72.3571 184.996 71.9542C185.018 71.5501 185.047 71.0033 185.011 70.3338C184.986 69.4504 185.025 68.7135 185.104 68.1217C185.184 67.5299 185.405 66.9695 185.769 66.4405C186.132 65.9115 186.704 65.5129 187.51 65.222C188.608 64.8275 189.609 64.9284 190.513 65.4772C191.418 66.0259 192.11 66.9687 192.592 68.2579C193.072 69.5946 193.129 70.7659 192.787 71.7966C192.445 72.8274 191.735 73.5763 190.679 74.0685L189.698 71.3462C190.118 71.1063 190.446 70.79 190.612 70.3697C190.802 69.9507 190.78 69.4727 190.593 68.9382C190.426 68.4764 190.157 68.1283 189.807 67.9428C189.459 67.7336 189.052 67.7357 188.588 67.9018C188.223 68.0254 187.947 68.2491 187.786 68.5743C187.626 68.8757 187.512 69.2273 187.49 69.6314C187.469 70.0355 187.441 70.5585 187.479 71.2042C187.478 72.1101 187.462 72.8721 187.381 73.4877C187.326 74.0807 187.103 74.6649 186.716 75.1926C186.352 75.7216 185.755 76.1428 184.926 76.4324C184.247 76.587 183.597 76.6478 182.933 76.5172Z" fill="white"/>
<path d="M198.248 99.6708L196.11 99.7954L195.788 94.152L192.185 94.3655L192.447 98.8853L190.381 99.0137L190.119 94.494L184.449 94.836L184.28 92.1569L197.756 91.372L198.248 99.6708Z" fill="white"/>
<path d="M195.932 118C195.189 118.914 194.268 119.58 193.12 119.996C191.972 120.411 190.77 120.514 189.463 120.325C188.157 120.113 187.032 119.648 186.066 118.905C185.1 118.162 184.431 117.221 184.011 116.126C183.59 115.03 183.485 113.857 183.671 112.603C183.88 111.374 184.346 110.279 185.089 109.365C185.832 108.451 186.777 107.786 187.901 107.369C189.049 106.953 190.251 106.85 191.581 107.064C192.887 107.276 194.012 107.741 194.978 108.484C195.92 109.226 196.614 110.145 197.033 111.264C197.454 112.359 197.559 113.533 197.372 114.786C197.186 116.04 196.651 117.084 195.932 118ZM194.657 112.258C194.404 111.624 193.954 111.076 193.355 110.639C192.755 110.202 192.004 109.923 191.125 109.781C190.247 109.639 189.454 109.692 188.723 109.916C188.017 110.14 187.422 110.514 186.986 111.063C186.551 111.588 186.252 112.263 186.14 113.02C186.027 113.777 186.085 114.496 186.337 115.153C186.59 115.81 187.041 116.334 187.64 116.772C188.24 117.209 188.991 117.487 189.869 117.629C190.748 117.771 191.541 117.718 192.271 117.495C192.978 117.27 193.574 116.873 194.009 116.348C194.444 115.822 194.743 115.147 194.855 114.39C194.992 113.611 194.935 112.892 194.657 112.258Z" fill="white"/>
<path d="M178.674 131.815L184.697 130.681L185.115 129.583L180.182 127.771L181.107 125.245L193.766 129.9L191.978 134.716C191.42 136.188 190.65 137.173 189.665 137.668C188.657 138.163 187.578 138.201 186.403 137.781C185.44 137.42 184.751 136.859 184.289 136.095C183.827 135.331 183.685 134.394 183.838 133.329L177.615 134.619L178.674 131.815ZM186.853 130.224L186.095 132.305C185.563 133.755 185.944 134.705 187.212 135.178C187.822 135.401 188.373 135.406 188.84 135.169C189.308 134.932 189.693 134.451 189.947 133.726L190.704 131.644L186.853 130.224Z" fill="white"/>
<path d="M166.623 155.324C166.369 154.69 166.309 154.02 166.445 153.264C166.581 152.508 166.932 151.764 167.524 150.985C168.092 150.229 168.745 149.644 169.461 149.252C170.176 148.861 170.905 148.662 171.671 148.655C172.437 148.672 173.143 148.9 173.839 149.319L172.114 151.587C171.627 151.299 171.153 151.202 170.621 151.293C170.113 151.385 169.667 151.671 169.282 152.151C168.948 152.587 168.804 153.032 168.855 153.44C168.905 153.848 169.125 154.217 169.517 154.5C169.838 154.756 170.191 154.87 170.576 154.843C170.937 154.814 171.301 154.714 171.647 154.518C171.993 154.322 172.463 154.037 173.033 153.662C173.755 153.152 174.397 152.781 174.938 152.524C175.478 152.267 176.083 152.156 176.729 152.166C177.375 152.177 178.031 152.45 178.698 152.962C179.619 153.655 180.099 154.539 180.138 155.614C180.176 156.689 179.76 157.763 178.936 158.84C178.086 159.963 177.114 160.674 176.047 160.927C174.98 161.18 173.96 161.007 172.986 160.407L174.737 158.092C175.18 158.33 175.607 158.4 176.066 158.329C176.525 158.259 176.922 157.994 177.257 157.535C177.566 157.146 177.706 156.748 177.68 156.341C177.654 155.935 177.457 155.59 177.042 155.282C176.719 155.05 176.39 154.938 176.053 154.967C175.692 154.996 175.352 155.097 175.006 155.293C174.66 155.489 174.215 155.752 173.669 156.128C172.899 156.635 172.257 157.006 171.715 157.287C171.175 157.545 170.569 157.679 169.923 157.669C169.277 157.658 168.597 157.384 167.906 156.87C167.28 156.479 166.877 155.957 166.623 155.324Z" fill="white"/>
<path d="M161.184 175.179C159.792 175.248 158.448 174.843 157.202 173.966L159.335 172.125C160.035 172.472 160.771 172.606 161.493 172.526C162.24 172.446 162.929 172.101 163.581 171.54C164.109 171.067 164.498 170.516 164.675 169.882C164.853 169.247 164.865 168.557 164.687 167.856C164.485 167.154 164.091 166.465 163.504 165.79C162.916 165.139 162.295 164.653 161.617 164.355C160.938 164.057 160.272 163.973 159.596 164.08C158.92 164.188 158.33 164.466 157.778 164.937C157.126 165.499 156.708 166.144 156.526 166.873C156.343 167.603 156.377 168.32 156.624 169.072L154.49 170.937C153.771 169.588 153.557 168.217 153.821 166.849C154.086 165.48 154.846 164.233 156.126 163.133C157.105 162.279 158.139 161.762 159.275 161.56C160.411 161.358 161.507 161.464 162.61 161.881C163.713 162.321 164.705 163.017 165.562 164.016C166.443 165.017 167.032 166.097 167.307 167.232C167.581 168.368 167.546 169.486 167.177 170.563C166.809 171.64 166.159 172.607 165.179 173.461C163.926 174.514 162.577 175.11 161.184 175.179Z" fill="white"/>
<path d="M140.067 174.199L145.389 177.247L146.426 176.659L143.844 172.087L146.188 170.781L152.796 182.505L148.305 185.007C146.947 185.77 145.713 186.014 144.624 185.765C143.536 185.517 142.687 184.828 142.074 183.746C141.57 182.861 141.402 181.97 141.568 181.097C141.734 180.224 142.209 179.414 143.037 178.696L137.452 175.657L140.067 174.199ZM147.345 178.281L145.42 179.371C144.087 180.11 143.724 181.092 144.403 182.273C144.732 182.839 145.144 183.194 145.641 183.316C146.137 183.438 146.742 183.327 147.433 182.935L149.383 181.846L147.345 178.281Z" fill="white"/>
<path d="M126.562 193.1C125.402 192.848 124.401 192.294 123.511 191.484C122.62 190.674 122.006 189.616 121.618 188.355C121.23 187.095 121.151 185.875 121.405 184.697C121.659 183.518 122.193 182.497 123.005 181.635C123.817 180.772 124.832 180.158 126.024 179.793C127.241 179.428 128.418 179.372 129.577 179.624C130.737 179.877 131.738 180.431 132.627 181.265C133.517 182.099 134.132 183.133 134.543 184.418C134.953 185.704 135.009 186.899 134.755 188.077C134.501 189.255 133.968 190.276 133.155 191.139C132.343 192.002 131.353 192.616 130.136 192.981C128.897 193.32 127.72 193.377 126.562 193.1ZM131.209 189.462C131.668 188.938 131.965 188.31 132.1 187.578C132.234 186.846 132.157 186.055 131.891 185.207C131.624 184.358 131.23 183.67 130.709 183.117C130.186 182.589 129.583 182.223 128.921 182.069C128.234 181.913 127.538 181.947 126.784 182.17C126.03 182.392 125.411 182.764 124.952 183.288C124.493 183.812 124.197 184.44 124.062 185.172C123.927 185.904 124.005 186.694 124.271 187.543C124.537 188.392 124.932 189.08 125.453 189.632C125.976 190.161 126.579 190.527 127.265 190.682C127.951 190.838 128.647 190.804 129.425 190.583C130.133 190.334 130.728 189.961 131.209 189.462Z" fill="white"/>
<path d="M110.99 185.12L106.488 185.572L106.285 183.535L113.485 182.797L114.88 196.175L112.207 196.461L110.99 185.12Z" fill="white"/>
<path d="M97.5356 185.501L92.9986 185.259L93.1074 183.215L100.318 183.622L99.579 197.053L96.8807 196.909L97.5356 185.501Z" fill="white"/>
<path d="M82.0634 195L84.6092 181.809L87.2647 182.308L84.7176 195.523L82.0634 195Z" fill="white"/>
<path d="M67.2749 176.357L69.8108 177.303L72.2843 187.972L75.4707 179.392L78.0067 180.337L73.3132 192.937L70.776 192.016L68.3301 181.277L65.116 189.926L62.5801 188.981L67.2749 176.357Z" fill="white"/>
<path d="M45.9149 178.153C45.4553 176.888 45.4759 175.602 45.9765 174.294L48.3375 175.826C48.2305 176.488 48.317 177.112 48.5945 177.747C48.8733 178.358 49.3482 178.884 50.0192 179.325C50.6676 179.741 51.35 179.968 52.0424 180.004C52.7349 180.041 53.4149 179.863 54.0573 179.492C54.6996 179.121 55.2566 178.554 55.7508 177.818C56.5317 176.643 56.8073 175.514 56.6016 174.43C56.3958 173.346 55.7489 172.454 54.6368 171.751C53.8264 171.231 52.9756 171.019 52.0845 171.114C51.1934 171.21 50.38 171.643 49.6471 172.367L53.4657 174.859L52.3981 176.471L46.6809 172.758L48.1131 170.593C48.7694 169.96 49.5136 169.476 50.3935 169.141C51.2734 168.806 52.2122 168.713 53.2126 168.814C54.213 168.915 55.1982 169.301 56.1708 169.925C57.2815 170.652 58.0969 171.53 58.6408 172.56C59.1846 173.59 59.3891 174.698 59.2793 175.86C59.1696 177.022 58.7494 178.168 58.0201 179.274C57.2895 180.403 56.4069 181.238 55.3711 181.803C54.3353 182.367 53.2443 182.619 52.0742 182.557C50.9042 182.495 49.7757 182.101 48.6649 181.374C47.2991 180.491 46.3744 179.417 45.9149 178.153Z" fill="white"/>
<path d="M33.7302 169.971L40.5507 163.301L42.2154 164.867L35.8962 172.017L33.7302 169.971ZM41.49 161.849L43.4186 159.806L45.5156 161.801L43.5882 163.82L41.49 161.849Z" fill="white"/>
<path d="M22.1691 153.668C22.1922 152.335 22.6639 151.12 23.5818 150.072L25.2563 152.355C24.9143 152.932 24.7846 153.569 24.8208 154.239C24.8809 154.909 25.1333 155.566 25.6019 156.211C26.0717 156.832 26.622 157.291 27.2541 157.563C27.8862 157.835 28.5761 157.919 29.3014 157.791C30.0266 157.663 30.7619 157.344 31.4848 156.81C32.6313 155.965 33.2801 155.023 33.4816 153.937C33.6592 152.849 33.3793 151.809 32.5979 150.743C32.0163 149.973 31.3013 149.458 30.4266 149.244C29.552 149.031 28.637 149.125 27.703 149.576L30.4052 153.248L28.8363 154.381L24.7937 148.897L26.8869 147.363C27.7202 147.002 28.5925 146.81 29.5502 146.814C30.484 146.816 31.4052 147.055 32.2911 147.508C33.177 147.96 33.9773 148.67 34.6708 149.589C35.4522 150.656 35.9206 151.754 36.0496 152.929C36.1799 154.08 36.0011 155.191 35.4892 156.261C34.9773 157.33 34.1864 158.242 33.1154 159.019C32.0443 159.796 30.9168 160.285 29.7341 160.46C28.5765 160.613 27.458 160.482 26.381 160.019C25.3041 159.557 24.3869 158.793 23.6055 157.726C22.6496 156.34 22.1687 155.027 22.1691 153.668Z" fill="white"/>
<path d="M16.4539 141.373L19.6216 139.896L17.6009 135.569L19.4675 134.691L21.4882 139.018L24.7778 137.501L22.521 132.66L24.4845 131.763L27.8816 139.025L15.6308 144.691L12.2349 137.405L14.1745 136.507L16.4539 141.373Z" fill="white"/>
<path d="M7.0012 120.558L9.06634 120L10.0253 123.579L21.0033 120.683L21.7037 123.271L10.7257 126.168L11.6847 129.747L9.61956 130.305L7.0012 120.558Z" fill="white"/>
<path d="M5.09253 100.168L18.602 100.1L18.6262 102.796L5.11674 102.864L5.09253 100.168Z" fill="white"/>
<path d="M20.5625 82.1576L20.1342 84.8049L10.1247 89.3026L19.1946 90.7627L18.7664 93.41L5.42228 91.2695L5.8505 88.6222L15.9317 84.1284L6.79014 82.6645L7.21836 80.0171L20.5625 82.1576Z" fill="white"/>
<path d="M17.4115 53.62L19.3253 54.5563L17.6639 57.877L27.8374 62.9003L26.6312 65.3155L16.4578 60.2922L14.7977 63.5892L12.8839 62.653L17.4115 53.62Z" fill="white"/>
<path d="M28.3782 39.2321C29.4794 38.79 30.6118 38.6595 31.8233 38.8432C33.0109 39.0256 34.1331 39.5383 35.1672 40.3562C36.2012 41.1741 36.9638 42.1445 37.4309 43.266C37.8981 44.3875 38.0297 45.515 37.8709 46.6985C37.6895 47.8571 37.2254 48.929 36.4295 49.9356C35.6587 50.9198 34.7108 51.6322 33.6097 52.0743C32.5086 52.5163 31.3761 52.6468 30.1646 52.4631C28.977 52.2807 27.8549 51.768 26.7969 50.9489C25.7628 50.1309 25.0003 49.1606 24.5558 48.0641C24.0886 46.9426 23.957 45.8151 24.1145 44.6553C24.2959 43.4968 24.7613 42.4011 25.5559 41.4182C26.3531 40.3878 27.301 39.6754 28.3782 39.2321ZM26.6658 44.8626C26.5813 45.5495 26.6879 46.2465 27.012 46.9075C27.3347 47.5922 27.8297 48.1907 28.5421 48.7531C29.2558 49.2917 29.9545 49.6626 30.6897 49.7971C31.4236 49.9554 32.1211 49.8971 32.781 49.6461C33.441 49.3952 33.9903 48.9714 34.4782 48.3537C34.966 47.736 35.2641 47.0843 35.3486 46.3974C35.433 45.7106 35.3252 45.0373 35.0024 44.3526C34.6796 43.6679 34.1846 43.0694 33.4722 42.507C32.7598 41.9446 32.0599 41.5974 31.3247 41.463C30.5908 41.3047 29.8932 41.3629 29.2333 41.6139C28.5734 41.8649 28.0001 42.2873 27.5123 42.9051C27.0483 43.5241 26.7502 44.1757 26.6658 44.8626Z" fill="white"/>
<path d="M38.4258 28.1803L43.4409 34.2881C44.1155 35.1107 44.7852 35.5755 45.4978 35.6849C46.1865 35.7931 46.8929 35.5684 47.568 35.0322C48.2431 34.4959 48.5877 33.8706 48.6256 33.1574C48.6384 32.4667 48.3207 31.6869 47.6687 30.8893L42.6536 24.7816L44.7305 23.1041L49.7456 29.2118C50.532 30.1834 51.0319 31.1398 51.1962 32.1022C51.3844 33.0658 51.2885 33.9666 50.9087 34.8046C50.5289 35.6427 49.9379 36.398 49.1371 37.0467C47.8849 38.0767 46.5689 38.5074 45.2116 38.3636C43.8543 38.2199 42.5789 37.4368 41.3867 35.9906L36.3716 29.8829L38.4258 28.1803Z" fill="white"/>
<path d="M62.2231 14.3318C63.598 14.5957 64.8043 15.3274 65.7967 16.4769L63.2626 17.7486C62.667 17.2401 62.0123 16.943 61.252 16.831C60.5143 16.7441 59.7639 16.8949 58.977 17.2821C58.3372 17.6057 57.8582 18.057 57.4922 18.6336C57.1502 19.2114 56.9954 19.8707 57.0052 20.5864C57.0137 21.3259 57.2372 22.0768 57.6491 22.8855C58.0385 23.6691 58.5322 24.2914 59.1315 24.7285C59.707 25.1644 60.3404 25.4127 61.0316 25.4733C61.6989 25.5327 62.3525 25.4006 62.9924 25.077C63.7554 24.6885 64.3337 24.1709 64.6795 23.5218C65.0493 22.874 65.1827 22.1659 65.1051 21.375L67.6392 20.1033C67.9906 21.6001 67.8934 22.9776 67.2759 24.2321C66.6809 25.5117 65.6211 26.5281 64.1202 27.2827C62.9637 27.8648 61.825 28.1141 60.6788 28.0531C59.5326 27.9922 58.4758 27.6022 57.5296 26.932C56.5608 26.2367 55.7958 25.3139 55.1879 24.1372C54.5812 22.9368 54.2838 21.7766 54.2993 20.5854C54.3135 19.418 54.6105 18.3372 55.2354 17.393C55.8378 16.4237 56.7404 15.6612 57.8969 15.079C59.3991 14.3007 60.8256 14.0429 62.2231 14.3318Z" fill="white"/>
<path d="M82.9981 6.4254L86.3757 19.455L83.7538 20.1261L82.2827 14.4692L76.6744 15.9111L78.1454 21.568L75.5247 22.2153L72.1471 9.18564L74.7691 8.51459L76.1409 13.7848L81.7242 12.3654L80.3523 7.09518L82.9981 6.4254Z" fill="white"/>
<path d="M100.051 2.77981L101.927 7.12321L106.572 8.0379L103.006 11.1381L103.546 15.8396L99.484 13.4301L95.1888 15.3948L96.2247 10.7773L93.0085 7.31618L97.7241 6.89958L100.051 2.77981Z" fill="#F3764F"/>
</svg>
