<svg width="195" height="198" viewBox="0 0 195 198" fill="none" xmlns="http://www.w3.org/2000/svg">
<path d="M88.0461 112.786L99.0461 124.068L110.046 112.786M99.0461 122.501V74.0684" stroke="#242F65" stroke-width="1.5" stroke-linecap="round" stroke-linejoin="round"/>
<path d="M119.965 16.1191C119.506 16.6283 118.902 16.9677 118.153 17.186C117.404 17.3799 116.558 17.3799 115.616 17.186C114.673 16.992 113.852 16.6283 113.199 16.1434C112.547 15.6584 112.04 15.0765 111.725 14.3734C111.411 13.6703 111.315 12.9186 111.411 12.0943L114.238 12.7004C114.19 13.2581 114.311 13.7672 114.601 14.2037C114.891 14.6401 115.35 14.9311 115.978 15.0523C116.534 15.1735 116.993 15.125 117.356 14.8826C117.718 14.6401 117.936 14.3007 118.032 13.84C118.129 13.4278 118.081 13.0641 117.887 12.7247C117.718 12.4095 117.452 12.1185 117.114 11.876C116.776 11.6336 116.317 11.3426 115.712 10.9789C114.939 10.5183 114.311 10.1061 113.852 9.71813C113.393 9.3302 113.03 8.84527 112.765 8.23912C112.499 7.63296 112.475 6.92983 112.644 6.08121C112.885 4.94164 113.489 4.11727 114.456 3.63235C115.423 3.14743 116.582 3.05044 117.96 3.3414C119.361 3.6566 120.424 4.2385 121.101 5.08712C121.802 5.95998 122.068 6.95407 121.947 8.11789L119.071 7.48749C119.095 6.97832 118.975 6.54189 118.709 6.1782C118.443 5.79026 118.032 5.5478 117.476 5.42657C116.993 5.32958 116.558 5.35383 116.196 5.5478C115.833 5.74177 115.616 6.08121 115.495 6.56613C115.447 6.97832 115.495 7.34201 115.664 7.65721C115.833 7.97241 116.099 8.23912 116.413 8.48158C116.727 8.72404 117.186 9.015 117.766 9.35444C118.564 9.83937 119.192 10.2758 119.675 10.6637C120.159 11.0517 120.521 11.5366 120.787 12.167C121.053 12.7731 121.077 13.5248 120.908 14.3734C120.739 15.028 120.449 15.61 119.965 16.1191Z" fill="#242F65"/>
<path d="M139.876 12.264C140.552 13.5248 140.77 14.9068 140.48 16.4343L137.846 15.2947C137.87 14.4946 137.677 13.7915 137.266 13.1368C136.855 12.5064 136.251 11.9973 135.454 11.6578C134.802 11.3669 134.125 11.2699 133.448 11.3669C132.772 11.4638 132.144 11.7548 131.588 12.2397C131.032 12.7246 130.573 13.3793 130.21 14.2279C129.848 15.0523 129.703 15.8281 129.727 16.5798C129.751 17.3314 129.969 17.9861 130.355 18.5437C130.742 19.1014 131.274 19.5378 131.926 19.8288C132.723 20.1682 133.497 20.2894 134.246 20.144C134.995 19.9985 135.647 19.659 136.203 19.1014L138.837 20.2409C137.919 21.4775 136.759 22.2776 135.381 22.6413C134.004 23.005 132.53 22.8353 130.984 22.1564C129.8 21.6472 128.857 20.8956 128.181 19.9742C127.504 19.0286 127.118 17.9618 127.045 16.7737C126.973 15.5857 127.19 14.3734 127.722 13.1368C128.253 11.9003 129.002 10.9062 129.92 10.1303C130.839 9.37867 131.878 8.91799 133.013 8.79676C134.149 8.65128 135.333 8.84525 136.541 9.37867C138.088 10.0333 139.199 11.0032 139.876 12.264Z" fill="#242F65"/>
<path d="M147.512 31.563L147.947 25.356L146.956 24.6771L143.911 29.0414L141.688 27.4654L149.517 16.2637L153.77 19.2459C155.075 20.1673 155.824 21.1614 156.066 22.2767C156.307 23.392 156.066 24.4589 155.341 25.5015C154.761 26.3501 154.012 26.8835 153.142 27.1259C152.272 27.3684 151.329 27.2714 150.315 26.835L149.976 33.2602L147.512 31.563ZM148.043 23.1496L149.88 24.4346C151.16 25.3317 152.199 25.2105 152.973 24.0709C153.359 23.5375 153.48 23.0041 153.383 22.4707C153.287 21.9373 152.9 21.4523 152.248 20.9917L150.411 19.7066L148.043 23.1496Z" fill="#242F65"/>
<path d="M170.177 34.91C170.467 36.0738 170.419 37.2376 170.056 38.4014C169.694 39.5652 169.041 40.6078 168.051 41.5292C167.084 42.4505 165.997 43.0567 164.813 43.3719C163.629 43.6628 162.445 43.6386 161.309 43.2991C160.173 42.9597 159.158 42.3051 158.288 41.3837C157.419 40.4623 156.839 39.4198 156.549 38.2559C156.259 37.0921 156.307 35.9283 156.67 34.7403C157.032 33.5764 157.709 32.5096 158.675 31.5883C159.642 30.6669 160.729 30.0607 161.913 29.7698C163.097 29.4788 164.257 29.5031 165.393 29.8425C166.528 30.182 167.543 30.8366 168.413 31.758C169.307 32.7036 169.887 33.7462 170.177 34.91ZM164.764 32.3399C164.088 32.1459 163.387 32.1459 162.662 32.3641C161.937 32.5823 161.236 32.9945 160.584 33.6249C159.932 34.2553 159.472 34.91 159.207 35.6374C158.941 36.3405 158.893 37.0436 159.062 37.7468C159.207 38.4257 159.569 39.0803 160.125 39.6622C160.681 40.2441 161.285 40.6321 161.961 40.826C162.638 41.02 163.339 40.9958 164.064 40.7775C164.788 40.5593 165.489 40.1471 166.142 39.5167C166.794 38.8863 167.253 38.2317 167.519 37.5043C167.785 36.7769 167.833 36.098 167.664 35.3949C167.519 34.716 167.157 34.0614 166.601 33.4795C166.069 32.9218 165.465 32.5339 164.764 32.3399Z" fill="#242F65"/>
<path d="M169.525 52.1007L172.013 55.9559L170.249 57.0954L166.311 50.9369L177.788 43.5176L179.262 45.821L169.525 52.1007Z" fill="#242F65"/>
<path d="M175.71 63.3754L177.595 67.57L175.686 68.4186L172.69 61.7267L185.134 56.1016L186.246 58.5989L175.71 63.3754Z" fill="#242F65"/>
<path d="M184.482 91.6705C183.37 91.2583 182.476 90.5552 181.751 89.5853C181.026 88.5912 180.567 87.3789 180.35 85.8999L179.649 81.0749L193.132 79.0625L193.833 83.8632C194.051 85.3423 193.954 86.6515 193.567 87.7911C193.181 88.9307 192.504 89.8763 191.586 90.5794C190.668 91.2826 189.508 91.7432 188.155 91.9372C186.802 92.2039 185.593 92.0827 184.482 91.6705ZM184.361 88.5427C185.255 89.2216 186.367 89.4641 187.744 89.2701C189.145 89.0762 190.16 88.4942 190.789 87.5971C191.441 86.6758 191.658 85.512 191.441 84.033L191.151 82.166L182.428 83.451L182.694 85.318C182.935 86.7728 183.467 87.8396 184.361 88.5427Z" fill="#242F65"/>
<path d="M193.833 109.297C193.157 110.291 192.287 111.067 191.175 111.576C190.064 112.109 188.856 112.327 187.527 112.23C186.198 112.133 185.014 111.745 183.999 111.067C182.984 110.388 182.211 109.515 181.679 108.448C181.172 107.381 180.954 106.193 181.027 104.908C181.123 103.623 181.486 102.483 182.162 101.489C182.815 100.495 183.709 99.7194 184.82 99.2102C185.932 98.6768 187.14 98.4586 188.493 98.5556C189.822 98.6526 191.006 99.0405 192.021 99.6952C193.036 100.374 193.809 101.247 194.341 102.314C194.848 103.381 195.066 104.569 194.993 105.854C194.872 107.163 194.51 108.303 193.833 109.297ZM192.069 103.575C191.755 102.944 191.272 102.435 190.619 102.047C189.967 101.659 189.194 101.441 188.3 101.368C187.406 101.295 186.608 101.417 185.908 101.708C185.207 101.999 184.651 102.435 184.264 103.017C183.854 103.599 183.636 104.278 183.588 105.078C183.54 105.878 183.66 106.581 183.974 107.236C184.289 107.866 184.772 108.375 185.424 108.763C186.077 109.151 186.85 109.369 187.744 109.442C188.638 109.515 189.435 109.394 190.136 109.103C190.837 108.812 191.393 108.375 191.779 107.793C192.19 107.211 192.408 106.533 192.456 105.732C192.504 104.908 192.383 104.205 192.069 103.575Z" fill="#242F65"/>
<path d="M187.309 138.416L175.372 130.997L176.411 127.797L186.608 128.427L178.006 122.899L179.045 119.723L193.06 120.765L192.142 123.578L181.437 122.293L190.643 128.16L189.725 130.997L178.827 130.318L188.227 135.604L187.309 138.416Z" fill="#242F65"/>
<path d="M165.634 148.6L167.084 146.272L178.175 146.005L170.322 141.083L171.772 138.756L183.346 146.005L181.896 148.333L170.733 148.551L178.658 153.522L177.209 155.849L165.634 148.6Z" fill="#242F65"/>
<path d="M158.579 175.586L157.153 173.961L159.956 171.44L152.32 162.832L154.35 161.014L161.986 169.621L164.789 167.124L166.239 168.748L158.579 175.586Z" fill="#242F65"/>
<path d="M143.621 184.629C142.437 184.654 141.302 184.338 140.238 183.732C139.175 183.126 138.305 182.229 137.629 181.065C136.952 179.901 136.59 178.713 136.566 177.477C136.541 176.24 136.831 175.125 137.411 174.082C138.015 173.04 138.861 172.191 139.949 171.536C141.036 170.882 142.196 170.567 143.38 170.542C144.564 170.518 145.699 170.833 146.763 171.439C147.826 172.07 148.696 172.943 149.372 174.107C150.049 175.27 150.411 176.458 150.411 177.671C150.436 178.883 150.146 180.023 149.566 181.065C148.962 182.108 148.116 182.956 147.028 183.611C145.965 184.29 144.805 184.629 143.621 184.629ZM147.318 179.926C147.657 179.295 147.802 178.616 147.753 177.865C147.705 177.113 147.439 176.337 147.004 175.561C146.545 174.785 145.989 174.179 145.361 173.767C144.733 173.355 144.056 173.137 143.356 173.137C142.655 173.137 141.954 173.331 141.278 173.743C140.577 174.155 140.069 174.664 139.731 175.295C139.393 175.925 139.248 176.604 139.296 177.356C139.344 178.107 139.61 178.883 140.069 179.659C140.528 180.435 141.084 181.041 141.712 181.453C142.341 181.865 143.017 182.059 143.718 182.084C144.419 182.084 145.12 181.89 145.796 181.477C146.473 181.065 146.98 180.556 147.318 179.926Z" fill="#242F65"/>
<path d="M113.272 183.78C113.465 183.126 113.852 182.544 114.456 182.035C115.036 181.525 115.809 181.162 116.752 180.919C117.694 180.701 118.564 180.653 119.385 180.798C120.207 180.943 120.908 181.259 121.488 181.744C122.068 182.229 122.502 182.883 122.768 183.659L119.941 184.338C119.748 183.805 119.434 183.417 118.975 183.15C118.515 182.883 117.984 182.81 117.38 182.98C116.824 183.101 116.437 183.368 116.22 183.732C116.002 184.095 115.93 184.508 116.051 184.968C116.147 185.381 116.341 185.696 116.655 185.914C116.945 186.132 117.307 186.278 117.718 186.35C118.129 186.423 118.66 186.496 119.361 186.544C120.255 186.617 121.004 186.738 121.584 186.884C122.188 187.029 122.72 187.32 123.203 187.732C123.686 188.169 124.049 188.799 124.242 189.624C124.508 190.763 124.315 191.757 123.662 192.63C123.01 193.479 121.995 194.085 120.642 194.4C119.24 194.74 118.032 194.667 117.041 194.182C116.051 193.697 115.35 192.921 114.988 191.806L117.839 191.127C118.032 191.588 118.322 191.927 118.733 192.169C119.144 192.388 119.627 192.436 120.183 192.315C120.666 192.194 121.028 191.975 121.27 191.636C121.512 191.297 121.56 190.884 121.439 190.399C121.343 190.012 121.149 189.721 120.859 189.502C120.569 189.308 120.231 189.163 119.82 189.09C119.434 189.017 118.902 188.945 118.226 188.896C117.307 188.799 116.534 188.678 115.954 188.557C115.35 188.411 114.818 188.145 114.311 187.708C113.804 187.272 113.441 186.617 113.248 185.768C113.054 185.09 113.055 184.435 113.272 183.78Z" fill="#242F65"/>
<path d="M104.815 194.546L104.597 191.006L99.7646 191.321L99.6438 189.236L104.452 188.921L104.211 185.236L98.7981 185.575L98.6531 183.393L106.772 182.859L107.642 196.51L99.523 197.043L99.378 194.885L104.815 194.546Z" fill="#242F65"/>
<path d="M89.2292 194.449L89.5917 190.909L84.7832 190.424L85.0006 188.339L89.8092 188.824L90.1716 185.163L84.7832 184.629L85.0006 182.447L93.0954 183.247L91.7423 196.874L83.6475 196.074L83.8649 193.916L89.2292 194.449Z" fill="#242F65"/>
<path d="M57.7683 187.806C57.0434 186.861 56.5843 185.794 56.4393 184.582C56.2943 183.369 56.4635 182.133 56.9709 180.896C57.4783 179.66 58.2032 178.641 59.1698 177.866C60.1363 177.09 61.1995 176.629 62.3835 176.484C63.5675 176.338 64.7516 176.484 65.9356 176.968C67.1196 177.453 68.0861 178.156 68.811 179.102C69.5601 180.048 69.9951 181.115 70.14 182.351C70.285 183.563 70.1159 184.8 69.6084 186.036C69.101 187.273 68.3761 188.291 67.4096 189.043C66.443 189.795 65.3798 190.255 64.1958 190.425C63.0118 190.571 61.8278 190.425 60.6438 189.94C59.4597 189.455 58.4932 188.752 57.7683 187.806ZM63.7367 187.903C64.4374 187.806 65.0657 187.491 65.6456 187.006C66.2255 186.497 66.6605 185.843 67.0229 184.994C67.3612 184.145 67.5062 183.369 67.4337 182.594C67.3854 181.842 67.1438 181.163 66.7088 180.605C66.298 180.048 65.6939 179.611 64.969 179.296C64.22 179.005 63.5192 178.884 62.8185 179.005C62.1177 179.102 61.4895 179.417 60.9096 179.926C60.3296 180.436 59.8947 181.09 59.5322 181.939C59.1939 182.788 59.049 183.563 59.1215 184.339C59.1939 185.091 59.4114 185.746 59.8464 186.327C60.2813 186.885 60.8612 187.322 61.5861 187.637C62.311 187.952 63.0601 188 63.7367 187.903Z" fill="#242F65"/>
<path d="M44.913 181.574L49.4316 174.955C50.0357 174.058 50.3015 173.282 50.2049 172.555C50.1082 171.828 49.6974 171.246 48.9725 170.736C48.2476 170.252 47.5469 170.082 46.8461 170.252C46.1454 170.421 45.5171 170.955 44.913 171.852L40.4186 178.471L38.1956 176.943L42.69 170.3C43.3907 169.257 44.1881 168.506 45.0822 168.045C45.9521 167.584 46.8703 167.415 47.7885 167.536C48.7067 167.657 49.6008 168.021 50.4707 168.603C51.8238 169.524 52.6212 170.664 52.887 172.046C53.1528 173.404 52.742 174.883 51.6788 176.459L47.1844 183.102L44.913 181.574Z" fill="#242F65"/>
<path d="M36.335 156.722L34.8127 162.735L35.6585 163.584L39.428 159.826L41.3369 161.765L31.6473 171.391L27.9986 167.681C26.8871 166.542 26.3072 165.426 26.283 164.287C26.2588 163.147 26.6696 162.129 27.5637 161.232C28.2886 160.504 29.1101 160.092 30.0042 160.019C30.8982 159.947 31.8164 160.189 32.7347 160.795L34.2086 154.516L36.335 156.722ZM34.3053 164.917L32.7347 163.317C31.6473 162.202 30.6083 162.129 29.6176 163.123C29.1585 163.584 28.9168 164.093 28.9168 164.602C28.9168 165.135 29.2068 165.693 29.7625 166.251L31.3332 167.851L34.3053 164.917Z" fill="#242F65"/>
<path d="M23.19 142.441L20.9186 138.464L22.7309 137.422L26.3554 143.774L14.5153 150.588L13.1621 148.211L23.19 142.441Z" fill="#242F65"/>
<path d="M15.047 125.785L16.8834 130.949L19.7831 130.925L20.7496 133.641L6.34812 133.447L5.30908 130.513L16.3277 121.227L17.2942 123.942L15.047 125.785ZM13.3314 127.191L8.59533 131.046L14.6845 130.998L13.3314 127.191Z" fill="#242F65"/>
<path d="M0.403809 109.248L2.5302 108.908L3.11013 112.642L14.4428 110.872L14.8536 113.563L3.52091 115.333L4.10084 119.043L1.95028 119.383L0.403809 109.248Z" fill="#242F65"/>
<path d="M2.19205 99.1867L5.71993 99.2352L5.76826 94.3859L7.84632 94.4102L7.798 99.2594L11.4709 99.3079L11.5434 93.8768L13.7181 93.901L13.6214 102.072L-0.00683594 101.878L0.0898183 93.707L2.24038 93.7313L2.19205 99.1867Z" fill="#242F65"/>
<path d="M14.1046 79.2308C14.6121 79.6915 14.9987 80.2734 15.2162 81.0008C15.4336 81.7281 15.4578 82.601 15.2887 83.5466C15.1195 84.4922 14.8054 85.3166 14.3221 86.0197C13.863 86.7228 13.2831 87.232 12.6065 87.5715C11.9058 87.9109 11.1567 88.0321 10.3351 87.9594L10.8667 85.0983C11.4225 85.1468 11.9058 85.0014 12.3407 84.6862C12.7757 84.371 13.0415 83.9103 13.1623 83.2799C13.2589 82.7222 13.1864 82.2615 12.9448 81.9221C12.7032 81.5584 12.3407 81.3402 11.8816 81.2675C11.4708 81.1947 11.1084 81.2432 10.7701 81.4372C10.4559 81.6312 10.166 81.8979 9.94851 82.2373C9.70688 82.5767 9.44108 83.0374 9.10279 83.6678C8.66784 84.4437 8.28123 85.0984 7.89461 85.5833C7.53216 86.0682 7.04889 86.4561 6.46896 86.7228C5.88903 87.0138 5.16413 87.0623 4.34257 86.9168C3.18272 86.6986 2.36115 86.1167 1.85372 85.1711C1.34628 84.2255 1.2013 83.0617 1.4671 81.6796C1.7329 80.2491 2.28866 79.1823 3.11022 78.4549C3.95595 77.7275 4.94666 77.4123 6.10651 77.5093L5.57491 80.4188C5.06747 80.4188 4.65669 80.5401 4.27008 80.8068C3.90762 81.0735 3.66599 81.5099 3.56933 82.0676C3.47268 82.5525 3.54517 82.9889 3.73848 83.3526C3.93179 83.7163 4.29424 83.9345 4.77751 84.0073C5.16413 84.08 5.52658 84.0315 5.81654 83.8375C6.10651 83.6436 6.39647 83.4011 6.61394 83.0617C6.83141 82.7222 7.12138 82.2615 7.4355 81.6796C7.89461 80.8795 8.30539 80.2249 8.66784 79.7399C9.0303 79.255 9.51357 78.8671 10.1177 78.5761C10.7217 78.2852 11.4467 78.2367 12.3165 78.3822C12.9931 78.5034 13.573 78.7944 14.1046 79.2308Z" fill="#242F65"/>
<path d="M7.94291 60.1992L9.97265 60.9509L8.66782 64.4908L19.4206 68.5156L18.4782 71.0857L7.72544 67.0609L6.42061 70.5766L4.39087 69.8249L7.94291 60.1992Z" fill="#242F65"/>
<path d="M27.2013 30.8125L35.7552 41.99L33.653 44.6086L24.35 40.3897L30.4634 48.6092L28.3612 51.2278L15.627 45.2875L17.4634 42.9841L27.008 47.9788L20.4597 39.2259L22.3203 36.874L32.2757 41.3838L25.3407 33.1159L27.2013 30.8125Z" fill="#242F65"/>
<path d="M41.8688 19.6343C43.0528 19.4889 44.2126 19.6586 45.3242 20.1435C46.4357 20.6284 47.4022 21.4043 48.2238 22.4711C49.0212 23.538 49.5286 24.6775 49.6736 25.9141C49.8428 27.1264 49.6978 28.2902 49.2145 29.3813C48.7554 30.4724 48.0063 31.418 46.9915 32.1939C45.9766 32.9697 44.8651 33.4304 43.681 33.5759C42.497 33.7214 41.3372 33.5516 40.2257 33.0667C39.1141 32.5818 38.1476 31.7817 37.326 30.7148C36.5286 29.648 36.0212 28.5084 35.8762 27.2961C35.7071 26.0838 35.8762 24.92 36.3353 23.8289C36.8186 22.7379 37.5435 21.7923 38.5584 21.0164C39.5732 20.2647 40.6848 19.8041 41.8688 19.6343ZM38.7275 24.7503C38.4617 25.4049 38.3892 26.1081 38.5342 26.8597C38.6792 27.6113 39.0175 28.3387 39.5491 29.0661C40.0807 29.7935 40.7089 30.3027 41.3855 30.6421C42.0621 30.9815 42.7628 31.1028 43.4636 31.03C44.1643 30.9573 44.8409 30.6663 45.4692 30.1814C46.0974 29.6965 46.5565 29.1388 46.8223 28.4842C47.0881 27.8295 47.1606 27.1264 47.0156 26.3748C46.8706 25.6231 46.5324 24.8958 46.0008 24.1684C45.4692 23.441 44.8409 22.9318 44.1643 22.5924C43.4877 22.2529 42.787 22.1317 42.0863 22.2044C41.3855 22.2772 40.7089 22.5681 40.0807 23.053C39.4524 23.538 38.9933 24.0956 38.7275 24.7503Z" fill="#242F65"/>
<path d="M63.6157 22.1802L58.4447 18.7372L57.3573 19.2464L59.6528 24.0471L57.1882 25.2352L51.3164 12.9182L56.0041 10.6633C57.4298 9.98438 58.6863 9.81465 59.7737 10.1541C60.861 10.4935 61.6826 11.2452 62.2142 12.3847C62.6491 13.3303 62.7699 14.2275 62.5525 15.1003C62.335 15.9732 61.7792 16.7491 60.9093 17.4279L66.322 20.8951L63.6157 22.1802ZM56.5599 17.5734L58.5896 16.6036C59.9911 15.9247 60.4019 14.9791 59.7978 13.7183C59.5079 13.1121 59.1212 12.7484 58.6138 12.5787C58.1064 12.409 57.5023 12.506 56.7774 12.8454L54.7476 13.8153L56.5599 17.5734Z" fill="#242F65"/>
<path d="M74.6584 11.0032L82.0041 16.2646L78.8145 17.1132L72.3387 12.3367L73.9335 18.3983L71.2996 19.1014L67.8201 5.863L70.4539 5.15986L72.0245 11.1002L75.3591 3.85057L78.5245 3.00195L74.6584 11.0032Z" fill="#242F65"/>
<path d="M96.6709 0.115418L98.87 5.09419L104.22 6.09356L100.18 9.74477L100.875 15.1381L96.1774 12.4266L91.262 14.7556L92.4027 9.43751L88.6663 5.47905L94.0637 4.90294L96.6709 0.115418Z" fill="#F3764F"/>
</svg>
