<svg width="203" height="203" viewBox="0 0 203 203" fill="none" xmlns="http://www.w3.org/2000/svg">
<path d="M111.094 86.2796L100.094 74.9976L89.0944 86.2796M100.094 76.5645L100.094 124.998" stroke="#242F65" stroke-width="1.5" stroke-linecap="round" stroke-linejoin="round"/>
<path d="M125.982 7.78294L125.559 9.88222L121.911 9.13976L119.645 20.2241L116.992 19.6777L119.258 8.59331L115.633 7.85212L116.057 5.75285L125.982 7.78294Z" fill="#242F65"/>
<path d="M144.231 14.4999L138.998 26.9045L136.491 25.8651L138.765 20.479L133.448 18.2412L131.151 23.6023L128.668 22.5642L133.902 10.1597L136.385 11.1977L134.274 16.2111L139.591 18.4489L141.702 13.4356L144.231 14.4999Z" fill="#242F65"/>
<path d="M153.063 32.5877L148.63 29.491L146.291 31.1545L143.959 29.5285L155.712 21.4999L158.229 23.255L154.602 36.9609L152.27 35.3349L153.063 32.5877ZM153.653 30.4974L155.302 24.7204L150.398 28.2262L153.653 30.4974Z" fill="#242F65"/>
<path d="M166.507 49.0613L164.672 47.0803L167.32 36.4693L160.573 42.6663L158.739 40.6853L168.658 31.5817L170.492 33.5627L167.793 44.2425L174.59 38.0005L176.425 39.9815L166.507 49.0613Z" fill="#242F65"/>
<path d="M178.983 55.3517L176.022 63.7528L174.351 60.9461L177.092 53.5346L171.776 56.6847L170.391 54.37L181.987 47.5012L183.373 49.8159L178.156 52.8998L185.923 54.0998L187.594 56.8827L178.983 55.3517Z" fill="#242F65"/>
<path d="M182.934 76.5172C182.27 76.3865 181.664 76.0682 181.093 75.5609C180.521 75.0537 180.08 74.3389 179.77 73.4165C179.435 72.5165 179.312 71.6756 179.356 70.8435C179.4 70.0115 179.653 69.3097 180.07 68.6882C180.486 68.0666 181.087 67.5741 181.823 67.2319L182.805 69.9304C182.314 70.1665 181.959 70.5291 181.742 71.0181C181.524 71.5072 181.52 72.0315 181.728 72.6147C181.916 73.1492 182.208 73.4985 182.581 73.6853C182.955 73.872 183.386 73.8711 183.824 73.7276C184.215 73.5815 184.515 73.359 184.676 73.0338C184.86 72.7099 184.951 72.3571 184.996 71.9542C185.018 71.5501 185.047 71.0033 185.011 70.3338C184.986 69.4504 185.025 68.7135 185.105 68.1217C185.184 67.5299 185.405 66.9695 185.769 66.4405C186.132 65.9115 186.704 65.5129 187.51 65.222C188.608 64.8275 189.609 64.9284 190.514 65.4772C191.418 66.0259 192.11 66.9687 192.593 68.2579C193.072 69.5946 193.13 70.7659 192.787 71.7966C192.445 72.8274 191.735 73.5763 190.679 74.0685L189.698 71.3462C190.118 71.1063 190.446 70.79 190.612 70.3697C190.802 69.9507 190.78 69.4727 190.593 68.9382C190.426 68.4764 190.157 68.1283 189.808 67.9428C189.46 67.7336 189.052 67.7357 188.589 67.9018C188.223 68.0254 187.947 68.2491 187.786 68.5743C187.627 68.8757 187.512 69.2273 187.491 69.6314C187.469 70.0355 187.441 70.5585 187.479 71.2042C187.479 72.1101 187.462 72.8721 187.381 73.4877C187.326 74.0807 187.103 74.6649 186.716 75.1926C186.352 75.7216 185.755 76.1428 184.926 76.4324C184.247 76.587 183.597 76.6478 182.934 76.5172Z" fill="#242F65"/>
<path d="M198.249 99.6708L196.111 99.7954L195.788 94.152L192.185 94.3655L192.447 98.8853L190.381 99.0137L190.119 94.494L184.449 94.836L184.281 92.1569L197.756 91.372L198.249 99.6708Z" fill="#242F65"/>
<path d="M195.932 118C195.189 118.914 194.268 119.58 193.12 119.996C191.973 120.411 190.77 120.514 189.463 120.325C188.157 120.113 187.032 119.648 186.066 118.905C185.1 118.162 184.432 117.221 184.011 116.126C183.59 115.03 183.485 113.857 183.672 112.603C183.881 111.374 184.346 110.279 185.089 109.365C185.832 108.451 186.778 107.786 187.901 107.369C189.049 106.953 190.252 106.85 191.581 107.064C192.887 107.276 194.012 107.741 194.978 108.484C195.92 109.226 196.614 110.145 197.033 111.264C197.454 112.359 197.559 113.533 197.373 114.786C197.186 116.04 196.652 117.084 195.932 118ZM194.657 112.258C194.404 111.624 193.954 111.076 193.355 110.639C192.755 110.202 192.004 109.923 191.125 109.781C190.247 109.639 189.454 109.692 188.724 109.916C188.017 110.14 187.423 110.514 186.986 111.063C186.551 111.588 186.252 112.263 186.14 113.02C186.028 113.777 186.085 114.496 186.338 115.153C186.59 115.81 187.041 116.334 187.64 116.772C188.24 117.209 188.991 117.487 189.87 117.629C190.748 117.771 191.541 117.718 192.271 117.495C192.978 117.27 193.574 116.873 194.009 116.348C194.444 115.822 194.743 115.147 194.855 114.39C194.993 113.611 194.935 112.892 194.657 112.258Z" fill="#242F65"/>
<path d="M178.674 131.815L184.697 130.681L185.115 129.583L180.182 127.771L181.107 125.245L193.767 129.9L191.978 134.716C191.42 136.188 190.65 137.173 189.665 137.668C188.657 138.163 187.578 138.201 186.403 137.781C185.44 137.42 184.752 136.859 184.289 136.095C183.827 135.331 183.685 134.394 183.838 133.329L177.615 134.619L178.674 131.815ZM186.853 130.224L186.095 132.305C185.563 133.755 185.944 134.705 187.212 135.178C187.822 135.401 188.373 135.406 188.841 135.169C189.308 134.932 189.693 134.451 189.947 133.726L190.704 131.644L186.853 130.224Z" fill="#242F65"/>
<path d="M166.623 155.324C166.37 154.69 166.309 154.02 166.445 153.264C166.581 152.508 166.932 151.764 167.525 150.985C168.092 150.229 168.745 149.644 169.461 149.252C170.176 148.861 170.905 148.662 171.672 148.655C172.437 148.672 173.143 148.9 173.839 149.319L172.114 151.587C171.627 151.299 171.153 151.202 170.621 151.293C170.113 151.385 169.667 151.671 169.282 152.151C168.948 152.587 168.805 153.032 168.855 153.44C168.905 153.848 169.125 154.217 169.517 154.5C169.838 154.756 170.191 154.87 170.576 154.843C170.937 154.814 171.301 154.714 171.647 154.518C171.993 154.322 172.463 154.037 173.034 153.662C173.755 153.152 174.397 152.781 174.938 152.524C175.479 152.267 176.083 152.156 176.729 152.166C177.375 152.177 178.031 152.45 178.698 152.962C179.619 153.655 180.099 154.539 180.138 155.614C180.176 156.689 179.76 157.763 178.936 158.84C178.086 159.963 177.115 160.674 176.047 160.927C174.98 161.18 173.96 161.007 172.986 160.407L174.738 158.092C175.18 158.33 175.607 158.4 176.066 158.329C176.525 158.259 176.922 157.994 177.258 157.535C177.566 157.146 177.707 156.748 177.68 156.341C177.654 155.935 177.457 155.59 177.042 155.282C176.719 155.05 176.39 154.938 176.053 154.967C175.692 154.996 175.352 155.097 175.006 155.293C174.66 155.489 174.215 155.752 173.669 156.128C172.899 156.635 172.257 157.006 171.715 157.287C171.175 157.545 170.569 157.679 169.923 157.669C169.277 157.658 168.597 157.384 167.906 156.87C167.28 156.479 166.877 155.957 166.623 155.324Z" fill="#242F65"/>
<path d="M161.184 175.179C159.792 175.248 158.449 174.843 157.202 173.966L159.335 172.125C160.035 172.472 160.771 172.606 161.493 172.526C162.24 172.446 162.929 172.101 163.581 171.54C164.109 171.067 164.498 170.516 164.675 169.882C164.853 169.247 164.865 168.557 164.687 167.856C164.485 167.154 164.091 166.465 163.504 165.79C162.916 165.139 162.295 164.653 161.617 164.355C160.938 164.057 160.272 163.973 159.596 164.08C158.92 164.188 158.33 164.466 157.778 164.937C157.126 165.499 156.708 166.144 156.526 166.873C156.343 167.603 156.377 168.32 156.624 169.072L154.49 170.937C153.771 169.588 153.557 168.217 153.821 166.849C154.086 165.48 154.846 164.233 156.126 163.133C157.106 162.279 158.139 161.762 159.275 161.56C160.411 161.358 161.507 161.464 162.61 161.881C163.713 162.321 164.705 163.017 165.562 164.016C166.443 165.017 167.032 166.097 167.307 167.232C167.581 168.368 167.546 169.486 167.177 170.563C166.809 171.64 166.159 172.607 165.179 173.461C163.926 174.514 162.577 175.11 161.184 175.179Z" fill="#242F65"/>
<path d="M140.068 174.199L145.389 177.247L146.426 176.659L143.844 172.087L146.188 170.781L152.796 182.505L148.305 185.007C146.947 185.77 145.713 186.014 144.625 185.765C143.537 185.517 142.687 184.828 142.074 183.746C141.571 182.861 141.402 181.97 141.569 181.097C141.735 180.224 142.209 179.414 143.037 178.696L137.452 175.657L140.068 174.199ZM147.346 178.281L145.42 179.371C144.088 180.11 143.724 181.092 144.404 182.273C144.733 182.839 145.145 183.194 145.641 183.316C146.138 183.438 146.742 183.327 147.434 182.935L149.383 181.846L147.346 178.281Z" fill="#242F65"/>
<path d="M126.562 193.1C125.402 192.848 124.402 192.294 123.511 191.484C122.62 190.674 122.006 189.616 121.618 188.355C121.23 187.095 121.151 185.875 121.406 184.697C121.66 183.518 122.193 182.497 123.005 181.635C123.818 180.772 124.832 180.158 126.025 179.793C127.242 179.428 128.418 179.372 129.578 179.624C130.738 179.877 131.738 180.431 132.628 181.265C133.517 182.099 134.133 183.133 134.543 184.418C134.954 185.704 135.01 186.899 134.756 188.077C134.501 189.255 133.968 190.276 133.156 191.139C132.344 192.002 131.353 192.616 130.136 192.981C128.897 193.32 127.721 193.377 126.562 193.1ZM131.21 189.462C131.669 188.938 131.965 188.31 132.1 187.578C132.235 186.846 132.157 186.055 131.891 185.207C131.625 184.358 131.23 183.67 130.709 183.117C130.186 182.589 129.583 182.223 128.921 182.069C128.235 181.913 127.539 181.947 126.784 182.17C126.03 182.392 125.412 182.764 124.953 183.288C124.494 183.812 124.197 184.44 124.062 185.172C123.928 185.904 124.005 186.694 124.271 187.543C124.538 188.392 124.932 189.08 125.453 189.632C125.976 190.161 126.579 190.527 127.265 190.682C127.951 190.838 128.648 190.804 129.426 190.583C130.133 190.334 130.728 189.961 131.21 189.462Z" fill="#242F65"/>
<path d="M110.99 185.12L106.488 185.572L106.285 183.535L113.485 182.797L114.88 196.175L112.207 196.461L110.99 185.12Z" fill="#242F65"/>
<path d="M97.5359 185.501L92.9989 185.259L93.1076 183.215L100.318 183.622L99.5792 197.053L96.8809 196.909L97.5359 185.501Z" fill="#242F65"/>
<path d="M82.0638 195L84.6097 181.809L87.2651 182.308L84.7181 195.523L82.0638 195Z" fill="#242F65"/>
<path d="M67.2751 176.357L69.811 177.303L72.2845 187.972L75.471 179.392L78.0069 180.337L73.3134 192.937L70.7762 192.016L68.3304 181.277L65.1162 189.926L62.5803 188.981L67.2751 176.357Z" fill="#242F65"/>
<path d="M45.9149 178.153C45.4554 176.888 45.4759 175.602 45.9766 174.294L48.3376 175.826C48.2305 176.488 48.3171 177.112 48.5946 177.747C48.8734 178.358 49.3483 178.884 50.0193 179.325C50.6676 179.741 51.35 179.968 52.0425 180.004C52.735 180.041 53.415 179.863 54.0574 179.492C54.6997 179.121 55.2567 178.554 55.7509 177.818C56.5317 176.643 56.8074 175.514 56.6016 174.43C56.3959 173.346 55.7489 172.454 54.6369 171.751C53.8264 171.231 52.9756 171.019 52.0845 171.114C51.1934 171.21 50.3801 171.643 49.6471 172.367L53.4657 174.859L52.3981 176.471L46.6809 172.758L48.1132 170.593C48.7695 169.96 49.5137 169.476 50.3935 169.141C51.2734 168.806 52.2123 168.713 53.2127 168.814C54.2131 168.915 55.1983 169.301 56.1708 169.925C57.2816 170.652 58.097 171.53 58.6408 172.56C59.1847 173.59 59.3891 174.698 59.2794 175.86C59.1697 177.022 58.7495 178.168 58.0202 179.274C57.2896 180.403 56.407 181.238 55.3712 181.803C54.3354 182.367 53.2444 182.619 52.0743 182.557C50.9042 182.495 49.7757 182.101 48.665 181.374C47.2991 180.491 46.3745 179.417 45.9149 178.153Z" fill="#242F65"/>
<path d="M33.7304 169.971L40.5509 163.301L42.2157 164.867L35.8965 172.017L33.7304 169.971ZM41.4903 161.849L43.4189 159.806L45.5159 161.801L43.5885 163.82L41.4903 161.849Z" fill="#242F65"/>
<path d="M22.1696 153.668C22.1927 152.335 22.6644 151.12 23.5822 150.072L25.2568 152.355C24.9147 152.932 24.7851 153.569 24.8213 154.239C24.8814 154.909 25.1338 155.566 25.6023 156.211C26.0722 156.832 26.6225 157.291 27.2546 157.563C27.8867 157.835 28.5766 157.919 29.3018 157.791C30.0271 157.663 30.7624 157.344 31.4853 156.81C32.6318 155.965 33.2806 155.023 33.4821 153.937C33.6597 152.849 33.3797 151.809 32.5984 150.743C32.0167 149.973 31.3018 149.458 30.4271 149.244C29.5525 149.031 28.6375 149.125 27.7035 149.576L30.4056 153.248L28.8367 154.381L24.7942 148.897L26.8873 147.363C27.7207 147.002 28.593 146.81 29.5507 146.814C30.4845 146.816 31.4057 147.055 32.2916 147.508C33.1775 147.96 33.9778 148.67 34.6713 149.589C35.4526 150.656 35.921 151.754 36.0501 152.929C36.1804 154.08 36.0015 155.191 35.4897 156.261C34.9778 157.33 34.1869 158.242 33.1158 159.019C32.0448 159.796 30.9172 160.285 29.7345 160.46C28.5769 160.613 27.4584 160.482 26.3815 160.019C25.3046 159.557 24.3874 158.793 23.606 157.726C22.65 156.34 22.1691 155.027 22.1696 153.668Z" fill="#242F65"/>
<path d="M16.4541 141.373L19.6218 139.896L17.601 135.569L19.4677 134.691L21.4884 139.018L24.778 137.501L22.5212 132.66L24.4847 131.763L27.8818 139.025L15.631 144.691L12.2351 137.405L14.1747 136.507L16.4541 141.373Z" fill="#242F65"/>
<path d="M7.00119 120.558L9.06632 120L10.0253 123.579L21.0033 120.683L21.7037 123.271L10.7257 126.168L11.6847 129.747L9.61954 130.305L7.00119 120.558Z" fill="#242F65"/>
<path d="M5.09276 100.168L18.6023 100.1L18.6265 102.796L5.11697 102.864L5.09276 100.168Z" fill="#242F65"/>
<path d="M20.5629 82.1576L20.1346 84.8049L10.1251 89.3026L19.195 90.7627L18.7668 93.41L5.4227 91.2695L5.85092 88.6222L15.9321 84.1284L6.79056 82.6645L7.21878 80.0171L20.5629 82.1576Z" fill="#242F65"/>
<path d="M17.4118 53.62L19.3256 54.5563L17.6642 57.877L27.8376 62.9003L26.6315 65.3155L16.4581 60.2922L14.798 63.5892L12.8842 62.653L17.4118 53.62Z" fill="#242F65"/>
<path d="M28.3787 39.2321C29.4798 38.79 30.6123 38.6595 31.8238 38.8432C33.0114 39.0256 34.1336 39.5383 35.1676 40.3562C36.2017 41.1741 36.9643 42.1445 37.4314 43.266C37.8985 44.3875 38.0301 45.515 37.8714 46.6985C37.69 47.8571 37.2258 48.929 36.4299 49.9356C35.6592 50.9198 34.7113 51.6322 33.6102 52.0743C32.5091 52.5163 31.3766 52.6468 30.1651 52.4631C28.9775 52.2807 27.8553 51.768 26.7974 50.9489C25.7633 50.1309 25.0008 49.1606 24.5562 48.0641C24.0891 46.9426 23.9575 45.8151 24.115 44.6553C24.2964 43.4968 24.7618 42.4011 25.5564 41.4182C26.3536 40.3878 27.3015 39.6754 28.3787 39.2321ZM26.6663 44.8626C26.5818 45.5495 26.6884 46.2465 27.0124 46.9075C27.3352 47.5922 27.8302 48.1907 28.5426 48.7531C29.2563 49.2917 29.9549 49.6626 30.6901 49.7971C31.424 49.9554 32.1216 49.8971 32.7815 49.6461C33.4414 49.3952 33.9908 48.9714 34.4787 48.3537C34.9665 47.736 35.2646 47.0843 35.349 46.3974C35.4335 45.7106 35.3256 45.0373 35.0029 44.3526C34.6801 43.6679 34.1851 43.0694 33.4727 42.507C32.7603 41.9446 32.0604 41.5974 31.3252 41.463C30.5912 41.3047 29.8937 41.3629 29.2338 41.6139C28.5739 41.8649 28.0006 42.2873 27.5128 42.9051C27.0488 43.5241 26.7507 44.1757 26.6663 44.8626Z" fill="#242F65"/>
<path d="M38.4258 28.1803L43.4409 34.2881C44.1155 35.1107 44.7852 35.5755 45.4978 35.6849C46.1865 35.7931 46.8929 35.5684 47.568 35.0322C48.2431 34.4959 48.5877 33.8706 48.6256 33.1574C48.6384 32.4667 48.3207 31.6869 47.6687 30.8893L42.6536 24.7816L44.7304 23.1041L49.7455 29.2118C50.532 30.1834 51.0319 31.1398 51.1962 32.1022C51.3844 33.0658 51.2885 33.9666 50.9087 34.8046C50.5288 35.6427 49.9379 36.398 49.1371 37.0467C47.8849 38.0767 46.5689 38.5074 45.2116 38.3636C43.8543 38.2199 42.5789 37.4368 41.3867 35.9906L36.3716 29.8829L38.4258 28.1803Z" fill="#242F65"/>
<path d="M62.2232 14.3318C63.598 14.5957 64.8043 15.3274 65.7968 16.4769L63.2626 17.7486C62.6671 17.2401 62.0124 16.943 61.252 16.831C60.5143 16.7441 59.7639 16.8949 58.977 17.2821C58.3372 17.6057 57.8582 18.057 57.4923 18.6336C57.1502 19.2114 56.9954 19.8707 57.0052 20.5864C57.0138 21.3259 57.2372 22.0768 57.6492 22.8855C58.0385 23.6691 58.5322 24.2914 59.1316 24.7285C59.7071 25.1644 60.3404 25.4127 61.0316 25.4733C61.699 25.5327 62.3526 25.4006 62.9924 25.077C63.7554 24.6885 64.3337 24.1709 64.6796 23.5218C65.0493 22.874 65.1828 22.1659 65.1051 21.375L67.6393 20.1033C67.9907 21.6001 67.8934 22.9776 67.2759 24.2321C66.681 25.5117 65.6211 26.5281 64.1203 27.2827C62.9638 27.8648 61.825 28.1141 60.6788 28.0531C59.5326 27.9922 58.4758 27.6022 57.5296 26.932C56.5609 26.2367 55.7958 25.3139 55.1879 24.1372C54.5813 22.9368 54.2838 21.7766 54.2993 20.5854C54.3135 19.418 54.6105 18.3372 55.2355 17.393C55.8378 16.4237 56.7405 15.6612 57.8969 15.079C59.3991 14.3007 60.8257 14.0429 62.2232 14.3318Z" fill="#242F65"/>
<path d="M82.9984 6.4254L86.376 19.455L83.754 20.1261L82.283 14.4692L76.6746 15.9111L78.1456 21.568L75.5249 22.2153L72.1474 9.18564L74.7693 8.51459L76.1412 13.7848L81.7244 12.3654L80.3525 7.09518L82.9984 6.4254Z" fill="#242F65"/>
<path d="M100.051 2.77981L101.927 7.12321L106.572 8.0379L103.007 11.1381L103.547 15.8396L99.4842 13.4301L95.189 15.3948L96.2249 10.7773L93.0087 7.31618L97.7244 6.89958L100.051 2.77981Z" fill="#F3764F"/>
</svg>
